# xmcd CD database file
#
# Track frame offsets:
#	150
#	15257
#	27820
#	41475
#	56252
#	70140
#	82487
#	97320
#	112210
#	126942
#	139132
#	153240
#	169445
#	183927
#	198760
#	213855
#	226272
#	237802
#
# Disc length: 3346 seconds
#
# Revision: 3
# Processed by: cddbd v1.4PL0 Copyright (c) Steve Scherf et al.
# Submitted via: CDex 1.50
#
DISCID=f40d1012
DTITLE=Frank Sinatra - Portrait Of Sinatra [CD2]
DYEAR=1997
DGENRE=Vocal
TTITLE0=There's No Business Like Show Business
TTITLE1=Falling In Love With Love
TTITLE2=You Go To My Head
TTITLE3=Everybody Loves Somebody
TTITLE4=I Believe
TTITLE5=Why Was I Born?
TTITLE6=I've Got A Crush On You
TTITLE7=Body And Soul
TTITLE8=That Old Feeling
TTITLE9=Almost Like Being In Love
TTITLE10=September Song
TTITLE11=It Never Entered My Mind
TTITLE12=I Only Have Eyes For You
TTITLE13=The Song Is You
TTITLE14=Don't Cry Joe (Let Her Go, Let Her Go, Let Her Go)
TTITLE15=It All Depends On You
TTITLE16=The Continental
TTITLE17=I'm A Fool To Want You
EXTD=YEAR: 1997
EXTT0=3:18\n
EXTT1=2:45\n
EXTT2=2:59\n
EXTT3=3:14\n
EXTT4=3:02\n
EXTT5=2:42\n
EXTT6=3:15\n
EXTT7=3:16\n
EXTT8=3:13\n
EXTT9=2:40\n
EXTT10=3:05\n
EXTT11=3:33\n
EXTT12=3:10\n
EXTT13=3:15\n
EXTT14=3:18\n
EXTT15=2:43\n
EXTT16=2:31\n
EXTT17=2:15\n
PLAYORDER=
